<?xml version="1.0" standalone="no"?>
<!DOCTYPE svg PUBLIC "-//W3C//DTD SVG 20010904//EN"
 "http://www.w3.org/TR/2001/REC-SVG-20010904/DTD/svg10.dtd">
<svg version="1.0" xmlns="http://www.w3.org/2000/svg"
 width="6587.000000pt" height="2808.000000pt" viewBox="0 0 6587.000000 2808.000000"
 preserveAspectRatio="xMidYMid meet">

<g transform="translate(0.000000,2808.000000) scale(0.100000,-0.100000)"
fill="#000000" stroke="none">
<path d="M32853 28039 c-106 -155 -279 -498 -356 -705 -204 -547 -215 -1006
-32 -1341 19 -35 32 -63 29 -63 -3 0 -23 15 -44 33 -159 135 -472 237 -775
253 -109 5 -165 -2 -172 -23 -2 -5 61 -31 139 -57 424 -138 712 -363 859 -671
73 -152 90 -229 98 -432 7 -200 11 -209 97 -221 l49 -7 3 -110 3 -110 -116
-244 -115 -243 36 -59 c56 -94 166 -328 245 -527 40 -100 76 -181 81 -180 5 2
44 91 87 199 89 222 180 417 234 502 20 31 37 60 37 62 0 3 -52 115 -115 250
l-116 244 3 108 3 107 45 8 c32 5 53 17 73 38 26 29 27 34 27 149 0 272 78
489 251 699 151 183 401 338 706 438 76 25 142 49 147 54 19 19 -79 32 -184
26 -306 -18 -596 -114 -768 -254 -30 -24 -53 -40 -50 -36 2 5 25 52 51 104
122 250 145 538 72 895 -67 329 -247 755 -462 1094 l-41 63 -29 -43z"/>
<path d="M22480 27274 c-19 -2 -77 -9 -129 -15 -250 -29 -528 -127 -721 -255
-366 -242 -613 -593 -701 -995 -146 -668 169 -1428 790 -1908 522 -402 1015
-617 1636 -712 548 -84 1395 -90 1990 -13 668 85 1246 235 2530 653 684 222
929 301 931 298 2 -2 -25 -25 -58 -52 -161 -131 -283 -325 -339 -543 -28 -107
-27 -278 0 -385 55 -211 215 -405 420 -507 295 -147 752 -103 1052 101 342
232 420 636 173 898 -145 155 -333 192 -539 108 -102 -42 -148 -82 -165 -146
-35 -131 89 -256 219 -221 76 20 141 101 141 175 0 46 -33 108 -76 144 l-39
33 90 -5 c99 -5 150 -22 230 -77 63 -44 130 -138 155 -217 111 -361 -247 -711
-760 -740 -352 -20 -635 145 -747 435 -32 82 -43 255 -23 355 27 142 114 307
218 419 122 132 357 286 540 354 34 13 95 40 135 60 165 84 755 231 1157 289
738 106 1409 5 1696 -257 166 -153 216 -379 125 -574 -58 -124 -141 -188 -248
-188 -33 -1 -56 -4 -50 -8 28 -18 123 -8 174 18 132 65 224 261 208 440 -27
298 -270 507 -719 619 -622 155 -1356 92 -2396 -206 -201 -58 -1256 -375
-1715 -516 -421 -129 -444 -134 -705 -140 -164 -4 -239 -1 -315 10 -358 55
-654 258 -792 542 -53 110 -73 199 -73 328 0 242 83 440 260 617 231 231 562
373 875 374 229 1 394 -60 525 -193 115 -116 160 -224 160 -387 0 -144 -49
-270 -141 -365 -43 -44 -133 -109 -150 -109 -5 0 -1 16 7 35 7 19 14 57 14 85
0 196 -227 298 -373 169 -145 -127 -77 -367 111 -395 60 -9 253 35 341 79 83
40 194 149 239 234 68 128 90 309 57 453 -23 94 -87 218 -152 290 -235 259
-638 334 -1063 198 -349 -112 -642 -344 -780 -618 -45 -90 -85 -216 -101 -320
-15 -95 -6 -284 17 -370 105 -397 449 -698 914 -798 l85 -19 -192 -47 c-392
-95 -818 -171 -1188 -211 -202 -22 -896 -31 -1191 -16 -846 45 -1366 196
-1894 550 -408 273 -627 499 -789 811 -98 191 -147 332 -177 519 -19 116 -18
335 2 452 57 342 256 642 568 858 366 252 908 318 1462 176 592 -152 1035
-540 1129 -990 37 -178 14 -392 -59 -550 -165 -356 -513 -554 -894 -508 l-53
6 43 24 c170 96 238 300 159 478 -30 68 -111 148 -184 181 -54 25 -74 29 -152
29 -78 0 -98 -4 -152 -29 -72 -33 -154 -113 -183 -179 -61 -137 -33 -305 68
-410 38 -40 127 -97 151 -97 7 0 53 -18 102 -40 175 -79 333 -107 495 -89 410
45 748 347 860 768 32 120 43 304 24 430 -15 105 -65 263 -115 361 -248 492
-807 845 -1500 946 -98 14 -416 26 -485 18z"/>
<path d="M42970 27273 c-225 -21 -397 -54 -570 -109 -577 -183 -1008 -559
-1160 -1012 -137 -409 -35 -843 267 -1133 295 -283 716 -354 1065 -178 32 16
64 29 71 29 35 0 139 65 186 116 66 71 94 145 94 244 0 102 -28 173 -99 249
-78 85 -151 116 -269 116 -77 0 -98 -4 -147 -27 -76 -35 -151 -107 -185 -177
-25 -50 -28 -66 -28 -161 0 -90 4 -112 24 -152 32 -66 95 -134 154 -168 l49
-28 -78 -7 c-446 -42 -838 254 -930 702 -20 96 -14 307 11 403 25 96 115 276
185 368 357 474 1142 741 1831 623 451 -78 819 -341 1017 -728 104 -203 137
-363 129 -628 -7 -249 -49 -417 -158 -642 -167 -341 -395 -583 -824 -868 -487
-325 -963 -474 -1710 -537 -207 -17 -1136 -17 -1305 0 -418 43 -805 110 -1255
219 l-190 46 100 22 c266 61 468 169 636 342 134 138 211 267 259 434 33 112
38 314 12 439 -46 219 -136 385 -292 540 -200 199 -472 339 -765 396 -119 23
-322 23 -430 -1 -365 -78 -596 -326 -612 -655 -15 -314 163 -551 466 -622 148
-34 183 -34 247 -3 152 74 174 266 43 378 -95 82 -237 68 -318 -30 -51 -62
-66 -157 -37 -228 8 -19 13 -35 10 -35 -19 0 -106 62 -149 106 -97 99 -145
221 -145 369 0 158 50 277 164 391 195 195 534 244 886 127 332 -111 617 -357
715 -617 59 -156 73 -353 35 -500 -88 -346 -426 -618 -845 -683 -126 -19 -491
-12 -604 11 -40 9 -317 89 -615 180 -921 280 -1264 383 -1466 441 -813 235
-1435 330 -1933 296 -694 -48 -1116 -253 -1211 -591 -25 -92 -29 -159 -12
-239 42 -202 163 -332 305 -330 82 1 102 14 23 14 -112 1 -194 62 -253 189
-101 216 -20 483 190 625 367 250 1029 314 1816 176 333 -58 842 -193 969
-257 44 -22 107 -50 140 -62 151 -57 358 -185 480 -297 131 -120 226 -276 266
-433 25 -97 27 -255 5 -341 -46 -179 -177 -334 -355 -421 -87 -42 -179 -64
-304 -71 -343 -19 -687 139 -825 380 -128 224 -44 505 184 618 54 26 80 32
156 37 l92 5 -45 -44 c-72 -69 -85 -156 -34 -232 82 -121 256 -106 317 28 23
51 23 89 0 140 -26 58 -56 81 -157 122 -159 65 -315 56 -442 -27 -297 -193
-321 -595 -52 -870 136 -139 309 -227 543 -277 130 -28 353 -23 479 10 289 77
506 288 579 564 43 161 23 370 -51 544 -60 141 -188 309 -300 395 -27 21 -48
39 -47 41 3 3 279 -85 1007 -322 1404 -456 1969 -590 2810 -667 175 -16 962
-16 1175 0 630 48 1042 150 1475 367 386 193 782 494 993 755 319 395 490 905
448 1341 -6 67 -18 156 -27 198 -109 536 -536 1006 -1072 1181 -242 78 -565
116 -802 93z"/>
<path d="M31533 25796 c-198 -45 -349 -190 -384 -369 -30 -148 58 -273 167
-237 20 7 72 32 117 55 172 92 356 125 492 90 153 -40 269 -116 438 -288 142
-143 152 -147 143 -47 -21 220 -160 473 -338 617 -84 68 -213 136 -308 163
-97 27 -245 34 -327 16z"/>
<path d="M34025 25803 c-214 -30 -430 -164 -572 -356 -90 -123 -164 -305 -178
-444 -11 -104 0 -101 142 44 70 72 156 149 191 172 142 95 276 137 411 129 91
-6 257 -59 346 -111 84 -49 135 -61 177 -44 43 18 64 43 83 96 20 58 19 106
-5 183 -70 229 -322 369 -595 331z"/>
<path d="M5222 22717 c-48 -18 -97 -60 -118 -104 -16 -32 -19 -74 -25 -288
-12 -418 -65 -727 -185 -1098 -111 -340 -266 -657 -469 -962 -611 -915 -1597
-1566 -2690 -1775 -235 -45 -402 -61 -680 -66 -206 -4 -280 -9 -312 -20 -51
-18 -105 -78 -121 -133 -9 -29 -12 -1336 -12 -5302 0 -5107 1 -5265 19 -5304
22 -47 74 -99 114 -114 16 -6 97 -11 180 -11 692 -1 1315 -147 1912 -450 730
-369 1319 -925 1720 -1624 310 -541 483 -1128 524 -1779 10 -168 29 -215 106
-262 l48 -30 27720 -3 c19211 -1 27732 1 27759 8 21 6 54 25 74 42 64 57 72
83 83 300 13 233 32 391 72 593 86 433 239 842 454 1215 594 1030 1605 1755
2775 1990 237 48 519 80 703 80 49 0 108 5 132 11 58 15 119 68 139 122 15 38
16 503 14 5324 l-3 5281 -30 44 c-55 77 -93 90 -289 100 -728 34 -1391 232
-1993 594 -993 597 -1680 1569 -1902 2689 -39 198 -59 358 -72 594 -8 154 -14
202 -29 230 -24 47 -66 86 -112 105 -34 14 -2718 16 -27755 15 -21307 0
-27726 -3 -27751 -12z m55232 -459 c36 -347 63 -514 122 -755 311 -1270 1195
-2361 2389 -2947 423 -208 869 -350 1324 -421 137 -22 348 -45 403 -45 l48 0
0 -5030 0 -5030 -52 0 c-154 0 -537 -61 -800 -126 -688 -172 -1294 -481 -1848
-943 -138 -115 -404 -378 -522 -516 -383 -451 -660 -940 -843 -1490 -120 -360
-172 -618 -221 -1092 l-5 -53 -27479 0 -27478 0 -7 63 c-25 248 -66 473 -125
705 -470 1818 -2061 3175 -3935 3356 -88 8 -213 18 -277 22 l-118 6 0 5019 0
5019 83 0 c363 1 894 98 1313 241 1580 540 2751 1885 3018 3469 27 159 56 437
56 537 l0 63 27474 0 27475 0 5 -52z"/>
<path d="M5881 21888 c-13 -7 -33 -25 -43 -39 -19 -24 -19 -34 -9 -153 70
-813 -211 -1711 -762 -2441 -216 -285 -518 -589 -794 -798 -552 -418 -1307
-731 -2038 -846 -178 -28 -307 -40 -512 -48 -196 -7 -214 -13 -233 -81 -8 -26
-10 -1375 -8 -4547 3 -4353 4 -4511 21 -4537 10 -15 33 -31 50 -37 18 -5 160
-12 317 -14 308 -6 498 -22 765 -67 844 -142 1543 -509 2145 -1126 714 -733
1148 -1718 1220 -2769 11 -161 20 -187 72 -213 21 -10 688 -10 3324 -2 10764
32 16720 46 27374 65 4623 8 10230 20 12460 25 2230 6 5517 15 7303 19 3229 8
3248 8 3275 28 38 28 51 73 52 178 1 193 46 513 106 756 322 1312 1337 2427
2647 2909 382 140 781 220 1186 238 l161 8 33 32 32 32 0 4598 c0 4409 -1
4598 -18 4623 -10 15 -30 32 -45 37 -15 6 -121 13 -237 16 -312 7 -556 40
-855 116 -1408 354 -2520 1455 -2864 2835 -66 267 -96 494 -104 803 l-7 244
-31 28 c-32 28 -33 28 -205 34 -232 7 -8074 22 -27849 51 -9023 14 -17672 29
-19220 35 -6496 22 -6683 22 -6709 8z m2509 -208 c916 -6 9272 -21 18570 -35
9298 -14 18982 -29 21520 -35 2538 -5 6098 -13 7911 -16 l3296 -7 6 -161 c46
-1153 602 -2238 1530 -2982 390 -312 820 -546 1296 -705 379 -126 693 -186
1104 -211 l197 -12 0 -4457 0 -4457 -67 -6 c-338 -30 -530 -60 -783 -123
-1066 -264 -2033 -959 -2642 -1898 -387 -596 -610 -1246 -669 -1945 -6 -74
-12 -136 -12 -136 -1 -1 -2425 -7 -5387 -13 -2962 -6 -7261 -16 -9555 -21
-2293 -5 -6400 -14 -9125 -20 -2725 -5 -6750 -15 -8945 -20 -2194 -6 -6577
-17 -9740 -25 -3162 -8 -6860 -17 -8217 -21 l-2466 -7 -7 69 c-53 575 -163
1012 -380 1509 -359 827 -1022 1604 -1734 2033 -602 363 -1320 553 -2183 579
l-218 6 0 4399 0 4398 88 0 c416 0 1052 143 1573 354 621 251 1066 535 1470
936 612 609 1037 1410 1173 2213 39 228 50 358 50 600 l0 227 340 0 c188 0
1090 -5 2006 -10z"/>
<path d="M29500 19043 c-414 -42 -785 -122 -1195 -257 -554 -184 -1099 -432
-1690 -771 -2064 -1183 -4074 -3163 -4909 -4832 -298 -598 -441 -1156 -407
-1586 30 -361 145 -634 369 -868 317 -333 842 -550 1502 -620 145 -15 518 -15
675 0 1036 101 2130 598 3130 1421 268 221 691 617 701 657 13 52 -32 98 -83
84 -12 -3 -70 -49 -130 -102 -906 -802 -2099 -1435 -3109 -1648 -265 -56 -401
-72 -664 -78 -193 -4 -272 -2 -370 11 -429 57 -800 241 -1013 506 -290 360
-329 891 -112 1545 392 1180 1576 2710 3120 4029 1407 1203 2913 2029 4040
2215 384 64 753 60 1006 -10 179 -50 342 -164 406 -286 86 -161 85 -382 -3
-636 -213 -610 -927 -1459 -1755 -2088 -457 -346 -894 -578 -1197 -635 -131
-25 -279 -16 -356 21 -120 57 -175 141 -176 266 -1 502 985 1440 2005 1907
193 88 406 167 593 221 177 51 193 61 151 100 -60 56 -169 64 -376 26 -410
-75 -877 -226 -1206 -392 -807 -405 -1399 -1055 -1466 -1609 -33 -271 87 -498
324 -615 112 -54 180 -70 330 -76 210 -9 432 36 698 141 851 334 1869 1186
2432 2036 207 312 330 582 386 847 28 133 28 318 0 424 -95 364 -430 577
-1011 643 -123 15 -532 20 -640 9z"/>
<path d="M16998 18669 c-871 -69 -1970 -771 -3323 -2124 -515 -516 -1010
-1061 -1798 -1981 l-257 -301 -77 -7 c-117 -9 -673 -7 -908 4 -1468 71 -2817
408 -3847 960 -92 50 -177 90 -189 90 -20 0 -21 -4 -17 -45 7 -61 48 -141 98
-192 74 -74 568 -306 970 -456 1039 -385 2138 -581 3448 -613 149 -4 272 -9
272 -11 0 -3 -71 -84 -157 -181 -1050 -1175 -2012 -2073 -2930 -2735 l-92 -66
-428 155 c-1377 500 -1819 624 -2209 624 -211 0 -329 -36 -427 -129 -128 -121
-166 -299 -117 -541 97 -474 459 -950 885 -1162 188 -94 334 -128 585 -135
220 -6 347 8 575 67 375 96 770 279 1231 571 l141 89 229 -86 c1522 -571 2923
-846 4088 -803 568 21 1059 111 1515 276 188 68 244 97 295 154 50 56 91 132
82 154 -11 29 -86 17 -251 -41 -508 -176 -927 -244 -1505 -244 -1018 0 -2309
254 -3820 752 -262 87 -273 91 -253 107 315 242 421 327 574 455 400 333 736
645 1205 1118 459 463 801 832 1302 1405 172 196 208 233 235 237 18 3 106 10
197 16 625 43 1338 170 1965 350 1424 409 2642 1150 3383 2060 461 567 676
1157 571 1567 -52 204 -159 341 -354 453 -261 149 -568 214 -887 189z m513
-284 c226 -39 421 -145 508 -276 101 -151 110 -365 25 -599 -213 -593 -951
-1328 -1927 -1919 -1067 -645 -2318 -1079 -3596 -1246 -97 -12 -177 -22 -178
-21 -3 3 521 621 756 891 742 854 1413 1540 1986 2031 784 672 1453 1054 1994
1139 117 18 330 18 432 0z m-11906 -6799 c224 -40 551 -145 1255 -406 413
-153 1045 -380 1057 -380 29 0 -162 -112 -363 -213 -388 -195 -657 -274 -955
-284 -252 -8 -371 22 -554 141 -313 204 -680 736 -721 1046 -8 57 10 96 48
103 50 9 157 6 233 -7z"/>
<path d="M48439 16777 c-78 -27 -106 -44 -304 -192 -315 -236 -640 -522 -1025
-902 l-245 -242 -150 -31 c-265 -54 -596 -149 -653 -186 -45 -30 -128 -244
-95 -244 6 0 26 7 45 15 82 34 567 170 575 161 2 -2 -36 -48 -84 -102 -239
-267 -628 -732 -909 -1089 -1087 -1377 -1655 -2381 -1593 -2819 28 -198 185
-310 434 -308 459 4 1256 472 2498 1465 367 294 769 629 797 664 26 33 25 58
-1 84 -17 17 -29 20 -61 16 -50 -7 -79 -27 -219 -156 -377 -344 -968 -799
-1510 -1161 -787 -525 -1331 -775 -1486 -680 -45 27 -56 54 -50 119 35 392
936 1767 2026 3096 402 490 866 1010 908 1019 53 11 428 55 623 73 272 25 858
25 974 0 44 -9 81 -15 83 -13 10 10 -134 100 -185 116 -73 23 -215 47 -367 61
-134 14 -676 14 -827 2 -54 -5 -98 -5 -98 -2 0 4 114 117 253 252 388 375 579
548 855 769 170 138 183 156 143 192 -55 50 -238 62 -352 23z"/>
<path d="M55324 13791 c-201 -24 -331 -124 -310 -236 13 -69 106 -103 231 -86
214 31 405 143 405 238 0 27 -41 60 -89 72 -55 14 -169 20 -237 12z"/>
<path d="M30300 13743 c-478 -75 -920 -362 -1070 -695 -33 -75 -35 -77 -76
-83 -229 -34 -595 -416 -815 -852 -202 -400 -247 -749 -126 -978 114 -214 384
-309 700 -244 419 85 990 460 1563 1026 l80 79 110 18 c430 71 966 264 1384
501 184 103 570 374 617 432 13 17 2 56 -24 85 -30 33 -63 21 -158 -54 -324
-256 -768 -489 -1215 -639 -164 -54 -481 -139 -522 -139 -14 0 -9 11 26 58
185 244 326 522 373 737 18 84 20 241 4 310 -23 97 -69 176 -151 256 -137 137
-290 190 -535 188 -77 -1 -151 -3 -165 -6z m415 -289 c112 -29 189 -90 233
-184 22 -46 26 -69 26 -140 -1 -109 -22 -188 -89 -328 -88 -184 -264 -431
-427 -599 l-50 -51 -97 -7 c-115 -8 -313 9 -418 36 -176 45 -314 143 -375 267
-30 61 -33 74 -33 162 0 89 2 100 38 174 53 111 110 187 218 291 291 279 719
446 974 379z m-1346 -1197 c169 -176 386 -257 756 -283 l90 -6 -80 -76 c-113
-107 -316 -277 -455 -382 -508 -384 -879 -520 -1059 -390 -175 127 -86 455
229 849 98 123 230 266 327 358 l76 72 30 -42 c16 -23 55 -68 86 -100z"/>
<path d="M16205 13704 c-468 -50 -977 -322 -1429 -763 -450 -440 -768 -951
-852 -1370 -23 -115 -16 -283 15 -363 59 -153 231 -250 416 -234 198 17 414
120 695 332 166 126 298 242 547 480 l192 185 -54 -113 c-117 -243 -166 -470
-134 -620 35 -166 161 -268 350 -285 240 -21 719 233 1414 752 479 357 975
778 1329 1126 169 166 178 178 172 205 -11 41 -24 54 -57 54 -22 0 -72 -39
-236 -183 -1082 -949 -2213 -1737 -2493 -1737 -58 0 -74 25 -68 107 9 113 89
276 270 546 253 378 775 1007 1064 1282 69 65 74 73 74 111 0 139 -249 185
-452 83 l-36 -19 -7 39 c-9 55 -56 149 -99 198 -52 60 -159 128 -251 158 -65
22 -100 27 -204 30 -69 2 -144 1 -166 -1z m443 -328 c60 -31 73 -122 32 -231
-25 -64 -37 -78 -195 -219 -55 -49 -245 -229 -423 -400 -177 -171 -415 -400
-528 -509 -636 -612 -996 -866 -1169 -823 -109 27 -101 185 22 431 255 508
862 1166 1383 1500 179 115 406 217 555 248 93 20 287 22 323 3z"/>
<path d="M58145 13704 c-468 -50 -977 -322 -1429 -763 -450 -440 -768 -951
-852 -1370 -23 -115 -16 -283 15 -363 59 -153 231 -250 416 -234 198 17 414
120 695 332 166 126 298 242 547 480 l192 185 -54 -113 c-117 -243 -166 -470
-134 -620 35 -166 161 -268 350 -285 240 -21 719 233 1414 752 479 357 975
778 1329 1126 169 166 178 178 172 205 -11 41 -24 54 -57 54 -22 0 -72 -39
-236 -183 -1082 -949 -2213 -1737 -2493 -1737 -58 0 -74 25 -68 107 9 113 89
276 270 546 253 378 775 1007 1064 1282 69 65 74 73 74 111 0 139 -249 185
-452 83 l-36 -19 -7 39 c-9 55 -56 149 -99 198 -52 60 -159 128 -251 158 -65
22 -100 27 -204 30 -69 2 -144 1 -166 -1z m443 -328 c60 -31 73 -122 32 -231
-25 -64 -37 -78 -195 -219 -55 -49 -245 -229 -423 -400 -177 -171 -415 -400
-528 -509 -636 -612 -996 -866 -1169 -823 -109 27 -101 185 22 431 255 508
862 1166 1383 1500 179 115 406 217 555 248 93 20 287 22 323 3z"/>
<path d="M42740 13630 c-518 -47 -1118 -386 -1602 -907 -327 -353 -546 -741
-604 -1073 -51 -295 50 -564 257 -682 487 -279 1687 133 2869 986 370 266 697
543 1022 866 183 181 210 219 174 246 -32 23 -73 -3 -223 -139 -792 -719
-1770 -1320 -2608 -1603 -308 -103 -519 -147 -720 -148 -271 -2 -362 74 -334
277 5 37 18 96 29 130 21 62 148 325 175 361 14 19 15 18 52 -6 150 -97 385
-98 708 -3 512 152 1031 450 1265 728 130 153 206 316 217 461 18 233 -134
433 -372 490 -79 19 -200 25 -305 16z m457 -323 c73 -38 81 -98 28 -203 -176
-350 -997 -871 -1592 -1010 -132 -31 -396 -47 -377 -23 6 8 36 48 66 89 449
609 1059 1066 1543 1155 106 19 288 15 332 -8z"/>
<path d="M49110 13630 c-518 -47 -1118 -386 -1602 -907 -327 -353 -546 -741
-604 -1073 -51 -295 50 -564 257 -682 487 -279 1687 133 2869 986 247 178 532
408 735 594 59 53 122 109 140 125 l33 27 74 -24 c109 -37 230 -49 359 -36 97
9 213 34 264 55 11 5 -18 -32 -64 -81 -183 -193 -400 -474 -544 -701 -186
-295 -286 -583 -258 -738 35 -191 218 -318 433 -302 404 31 1003 396 2203
1341 392 308 946 759 956 778 18 33 7 81 -22 97 -50 28 -82 10 -344 -191
-1575 -1207 -2309 -1705 -2640 -1794 -77 -21 -112 -18 -142 12 -22 22 -25 32
-21 73 6 61 43 140 121 259 286 437 1116 1271 1721 1729 87 66 88 123 3 180
-117 78 -326 70 -487 -19 -30 -17 -125 -77 -210 -133 -172 -114 -236 -148
-390 -210 -185 -74 -365 -119 -459 -113 l-54 3 84 65 c243 187 389 396 365
522 -8 46 -62 96 -121 114 -71 21 -206 18 -295 -7 -254 -70 -516 -271 -623
-478 -62 -118 -69 -200 -26 -284 l19 -37 -128 -106 c-893 -745 -2029 -1343
-2807 -1480 -137 -24 -341 -24 -417 -1 -59 18 -110 54 -130 91 -32 60 -27 177
12 299 21 62 148 325 175 361 14 19 15 18 52 -6 150 -97 385 -98 708 -3 512
152 1031 450 1265 728 130 153 206 316 217 461 18 233 -134 433 -372 490 -79
19 -200 25 -305 16z m2616 -245 c19 -26 4 -55 -70 -133 -78 -83 -202 -185
-340 -280 -89 -62 -109 -70 -135 -53 -12 8 -9 16 17 45 41 47 51 85 27 102
-10 7 -22 11 -26 8 -21 -12 -6 13 37 62 88 104 260 225 368 260 49 16 106 11
122 -11z m-2159 -78 c73 -38 81 -98 28 -203 -176 -350 -997 -871 -1592 -1010
-132 -31 -396 -47 -377 -23 6 8 36 48 66 89 449 609 1059 1066 1543 1155 106
19 288 15 332 -8z"/>
<path d="M33895 13574 c-429 -77 -836 -301 -1272 -702 -448 -412 -826 -1014
-897 -1431 -38 -224 -4 -365 114 -474 254 -236 694 -74 1325 486 55 49 169
155 254 236 85 80 151 139 145 130 -5 -8 -111 -150 -235 -315 -276 -366 -368
-492 -480 -656 -61 -90 -103 -141 -145 -174 -86 -69 -153 -135 -171 -168 -18
-34 -20 -85 -4 -115 10 -18 -5 -49 -122 -243 -550 -913 -877 -1587 -1005
-2068 -33 -126 -36 -145 -36 -290 -1 -175 10 -214 75 -279 62 -62 107 -76 249
-76 114 1 133 3 217 33 214 73 443 219 729 462 148 127 537 518 718 721 582
658 835 1072 839 1370 1 78 -2 92 -31 152 -38 77 -89 125 -178 167 -120 58
-265 81 -618 100 -104 5 -191 12 -194 15 -7 7 75 139 140 226 84 111 224 221
613 479 601 398 1712 1060 2961 1763 94 53 177 104 184 112 19 22 -2 63 -37
71 -42 11 -100 -9 -276 -96 -783 -383 -2356 -1289 -2914 -1676 -50 -35 -95
-64 -98 -64 -24 0 605 774 1200 1475 288 340 274 323 281 352 32 127 -253 196
-437 105 l-56 -27 -12 57 c-31 149 -187 290 -377 338 -94 24 -324 26 -449 4z
m553 -308 c68 -35 80 -139 28 -248 -19 -40 -49 -75 -109 -129 -119 -107 -215
-198 -677 -645 -715 -691 -977 -920 -1222 -1068 -150 -91 -271 -120 -332 -81
-105 69 -27 325 208 680 255 386 632 793 996 1076 215 168 493 325 678 385
166 53 360 67 430 30z m-718 -2981 c162 -38 239 -101 255 -212 15 -99 -76
-315 -228 -542 -188 -279 -398 -523 -761 -887 -474 -474 -883 -811 -1144 -945
-94 -48 -148 -53 -158 -14 -15 59 54 291 153 515 203 459 693 1318 1105 1935
l93 140 51 7 c220 31 506 33 634 3z"/>
<path d="M37895 13530 c-218 -39 -422 -165 -603 -372 -296 -340 -597 -805
-755 -1168 -114 -262 -162 -456 -155 -630 8 -184 69 -285 216 -357 74 -37 78
-38 187 -37 96 0 121 4 202 32 129 44 250 107 405 211 205 137 368 276 770
651 l87 81 -35 -78 c-121 -263 -168 -460 -144 -608 38 -242 223 -371 483 -336
419 55 1048 463 1902 1232 188 169 765 737 806 793 52 71 26 131 -43 102 -15
-6 -109 -88 -210 -182 -985 -920 -1938 -1631 -2310 -1722 -94 -24 -173 -8
-198 37 -17 32 -11 133 11 202 124 379 801 1266 1367 1790 107 99 122 117 122
145 0 44 -38 87 -108 121 -77 38 -225 45 -319 15 -158 -50 -481 -324 -661
-559 -113 -149 -544 -589 -888 -908 -514 -478 -898 -755 -1099 -796 -160 -32
-206 84 -126 321 60 177 164 377 329 630 310 476 702 908 1057 1162 76 54 90
70 93 95 7 65 -113 129 -259 137 -41 3 -96 1 -124 -4z"/>
<path d="M54793 13296 c-104 -39 -289 -192 -528 -437 -501 -514 -846 -1081
-906 -1488 -23 -158 5 -267 90 -352 84 -83 142 -103 301 -103 119 -1 130 1
235 37 287 99 642 312 1125 675 467 352 1022 835 1408 1224 153 156 167 181
118 213 -38 25 -74 3 -246 -151 -808 -724 -1645 -1371 -2105 -1629 -379 -212
-553 -213 -505 -3 16 74 114 272 203 410 244 381 731 981 1080 1331 104 104
117 121 117 152 0 117 -217 184 -387 121z"/>
<path d="M50623 9970 c-61 -37 -81 -124 -46 -197 24 -52 67 -75 130 -70 194
14 186 287 -9 287 -25 0 -56 -8 -75 -20z"/>
<path d="M40250 9900 l0 -60 100 0 c115 0 149 -12 180 -63 19 -31 20 -58 20
-995 0 -1063 4 -1002 -63 -1042 -26 -16 -50 -20 -134 -20 l-103 0 0 -61 0 -60
608 3 c533 3 617 6 692 22 237 49 360 106 476 221 122 120 173 247 174 427 0
163 -45 275 -154 383 -89 89 -198 145 -358 185 -112 28 -113 28 -80 40 77 28
211 100 270 145 248 187 280 532 69 739 -102 100 -249 161 -450 186 -47 6
-327 10 -664 10 l-583 0 0 -60z m1245 -70 c228 -36 370 -145 412 -314 48 -199
-64 -401 -280 -505 -172 -84 -342 -111 -687 -111 l-221 0 3 428 c3 400 4 429
22 455 37 55 44 56 381 57 171 0 337 -4 370 -10z m-5 -1069 c276 -49 436 -143
508 -298 31 -68 42 -204 23 -294 -38 -181 -177 -325 -383 -395 -130 -44 -228
-54 -543 -54 -270 0 -292 1 -322 20 -21 13 -35 31 -42 57 -7 24 -11 212 -11
517 l0 479 328 -6 c270 -4 347 -8 442 -26z"/>
<path d="M48626 9778 c-3 -7 -7 -76 -10 -153 -13 -354 -86 -485 -290 -517
l-76 -13 0 -47 0 -48 150 0 150 0 0 -543 c0 -569 3 -619 45 -711 49 -109 126
-158 260 -164 144 -7 225 28 363 153 88 80 91 89 51 131 l-33 34 -71 -69 c-80
-80 -168 -136 -226 -146 -103 -17 -187 37 -208 135 -7 34 -11 243 -11 615 l0
565 225 0 225 0 0 50 0 50 -225 0 -225 0 -2 343 -3 342 -43 3 c-28 2 -44 -1
-46 -10z"/>
<path d="M43860 9150 c-369 -96 -584 -416 -567 -845 6 -152 29 -252 86 -370
126 -263 339 -395 639 -395 214 0 346 52 483 189 71 71 94 102 133 181 86 175
117 348 97 539 -34 320 -168 535 -406 652 -143 70 -314 88 -465 49z m370 -131
c193 -92 284 -253 312 -548 12 -136 2 -292 -28 -406 -26 -100 -91 -222 -155
-287 -140 -143 -382 -178 -575 -83 -219 108 -340 411 -306 769 14 145 32 218
76 311 59 124 159 213 295 262 58 21 80 23 186 21 114 -3 124 -5 195 -39z"/>
<path d="M57725 9146 c-109 -26 -218 -90 -306 -178 -234 -234 -307 -660 -169
-990 84 -204 220 -337 412 -406 66 -23 87 -26 223 -26 132 -1 158 2 214 22
122 44 221 123 357 286 l83 99 -39 28 c-22 16 -43 29 -47 29 -5 -1 -35 -37
-68 -82 -163 -219 -341 -311 -537 -279 -40 7 -95 22 -123 35 -220 102 -375
366 -375 639 l0 87 575 0 575 0 0 48 c0 107 -39 251 -98 367 -52 100 -173 220
-272 268 -41 20 -102 44 -135 52 -70 18 -200 18 -270 1z m298 -116 c167 -62
258 -190 294 -411 9 -54 14 -101 11 -104 -3 -3 -223 -4 -490 -3 l-485 3 19 80
c51 220 204 401 378 450 71 19 199 12 273 -15z"/>
<path d="M53421 9128 c-4 -13 -21 -57 -36 -99 l-28 -76 -66 50 c-138 105 -264
143 -445 135 -198 -9 -361 -81 -496 -217 -83 -84 -134 -170 -172 -291 -20 -65
-23 -95 -22 -220 0 -130 3 -154 27 -226 52 -158 168 -289 319 -363 111 -55
182 -72 313 -78 90 -4 126 -1 200 16 102 25 208 73 278 126 l47 36 0 -241 c0
-326 -2 -330 -154 -330 l-86 0 0 -50 0 -50 315 0 315 0 0 50 0 50 -65 0 c-67
0 -126 17 -141 41 -5 8 -11 406 -14 884 l-5 870 -38 3 c-31 3 -38 0 -46 -20z
m-371 -114 c109 -32 198 -91 257 -167 l32 -42 1 -362 0 -361 -33 -43 c-46 -61
-172 -144 -259 -171 -92 -28 -225 -30 -313 -4 -258 76 -415 301 -415 593 0
107 19 183 66 274 72 137 233 260 387 295 74 17 199 11 277 -12z"/>
<path d="M46040 9084 c-100 -44 -180 -68 -267 -80 l-53 -7 0 -48 0 -49 58 -1
c96 -1 164 -14 178 -34 11 -15 14 -103 14 -449 0 -237 5 -461 10 -498 22 -152
82 -243 198 -300 64 -32 71 -33 187 -32 104 0 129 3 187 26 95 36 168 82 254
161 l74 69 0 -121 0 -121 230 0 230 0 0 50 0 50 -90 0 c-107 0 -164 19 -185
61 -13 24 -15 130 -15 698 l0 669 -99 -43 c-104 -46 -182 -70 -268 -81 l-53
-7 0 -47 0 -47 61 -7 c34 -3 82 -6 105 -6 31 0 50 -6 64 -20 19 -19 20 -33 20
-457 l0 -436 -83 -81 c-173 -170 -372 -235 -505 -167 -45 23 -73 53 -101 108
-43 85 -44 107 -50 708 l-6 581 -95 -42z"/>
<path d="M50705 9097 c-86 -43 -184 -76 -270 -89 l-75 -12 0 -46 0 -47 88 -5
c90 -5 144 -24 156 -53 3 -9 6 -249 6 -533 0 -556 1 -546 -53 -586 -25 -18
-45 -21 -158 -24 l-129 -4 0 -49 0 -49 415 0 415 0 0 50 0 50 -110 0 c-120 0
-181 16 -203 54 -9 16 -13 191 -17 697 l-5 677 -60 -31z"/>
<path d="M54890 9084 c-100 -44 -180 -68 -267 -80 l-53 -7 0 -48 0 -49 58 -1
c96 -1 164 -14 178 -34 11 -15 14 -103 14 -449 0 -237 5 -461 10 -498 22 -152
82 -243 198 -300 64 -32 71 -33 187 -32 104 0 129 3 187 26 95 36 168 82 254
161 l74 69 0 -121 0 -121 230 0 230 0 0 50 0 50 -90 0 c-107 0 -164 19 -185
61 -13 24 -15 130 -15 698 l0 669 -99 -43 c-104 -46 -182 -70 -268 -81 l-53
-7 0 -47 0 -47 61 -7 c34 -3 82 -6 105 -6 31 0 50 -6 64 -20 19 -19 20 -33 20
-457 l0 -436 -83 -81 c-173 -170 -372 -235 -505 -167 -45 23 -73 53 -101 108
-43 85 -44 107 -50 708 l-6 581 -95 -42z"/>
<path d="M2190 21944 c-190 -49 -380 -203 -474 -384 -36 -68 -79 -196 -91
-267 l-7 -42 -91 77 c-251 210 -597 371 -1027 477 -151 37 -448 90 -457 81 -8
-8 76 -250 139 -401 174 -412 424 -784 652 -965 31 -25 56 -47 56 -50 0 -3
-35 -23 -78 -45 -98 -50 -240 -187 -300 -290 -152 -260 -133 -546 47 -726 159
-157 418 -197 601 -91 185 107 257 312 145 411 -62 54 -155 63 -210 19 -34
-27 -31 -51 10 -86 l35 -28 -49 -24 c-124 -58 -278 1 -311 118 -31 113 25 267
138 378 60 60 198 134 292 158 120 30 519 3 641 -43 71 -27 182 -105 234 -164
53 -60 98 -149 114 -225 6 -29 11 -103 11 -165 1 -102 2 -110 16 -92 8 11 25
52 37 90 39 129 25 301 -35 419 -16 31 -17 38 -5 33 93 -36 246 -41 342 -13
89 27 215 95 215 117 0 4 -33 -2 -72 -14 -106 -31 -280 -30 -361 2 -328 130
-529 606 -426 1009 38 148 130 272 248 332 122 61 207 61 273 2 70 -64 93
-132 77 -229 l-11 -63 -43 31 c-36 26 -46 29 -63 20 -44 -23 -42 -139 3 -197
73 -96 224 -81 323 31 165 188 147 481 -43 670 -69 68 -135 107 -220 130 -73
19 -202 18 -275 -1z m-1340 -579 c141 -37 321 -129 397 -202 87 -84 116 -145
121 -260 l4 -92 -27 -7 c-14 -3 -59 -4 -100 -2 -114 8 -205 55 -315 166 -47
48 -104 114 -125 147 -45 67 -145 262 -145 280 0 15 48 7 190 -30z"/>
<path d="M63418 21825 c-85 -21 -155 -60 -220 -123 -71 -67 -112 -131 -144
-219 -81 -231 47 -520 247 -558 75 -14 161 36 188 108 16 41 13 109 -5 135
-20 29 -46 28 -84 -4 -17 -15 -32 -25 -34 -23 -12 13 -25 117 -20 151 9 50 58
125 104 156 30 20 45 23 105 20 170 -8 330 -155 389 -357 102 -347 -53 -808
-329 -980 -115 -72 -270 -90 -434 -51 -46 11 -86 19 -88 16 -6 -5 54 -50 96
-71 121 -61 276 -80 397 -48 l71 19 -25 -56 c-29 -65 -52 -167 -52 -230 0 -64
25 -173 54 -233 l24 -52 1 117 c1 145 13 204 60 293 62 120 200 234 326 270
96 27 262 45 422 45 178 0 219 -8 343 -68 175 -85 307 -290 285 -441 -12 -83
-46 -125 -129 -162 -58 -25 -125 -22 -193 8 l-42 20 35 34 c43 42 41 68 -6 92
-49 25 -135 19 -179 -13 -119 -84 -80 -279 80 -396 194 -142 482 -112 656 69
69 71 107 139 128 229 68 291 -114 643 -410 793 l-53 27 133 131 c73 73 167
178 208 234 184 249 357 593 471 936 20 59 36 111 36 116 0 4 -53 0 -117 -10
-551 -84 -1064 -285 -1352 -530 -35 -30 -74 -62 -86 -72 l-23 -17 -17 77 c-38
176 -114 312 -239 430 -86 83 -170 135 -274 169 -94 32 -223 40 -304 19z
m1787 -567 c-17 -56 -122 -243 -182 -322 -36 -48 -91 -109 -123 -136 -111 -92
-255 -142 -351 -123 l-44 9 0 94 c0 86 3 100 29 147 79 143 259 255 520 323
140 37 160 38 151 8z"/>
<path d="M835 6934 c-214 -46 -367 -189 -419 -390 -22 -85 -20 -204 4 -299 65
-256 243 -460 490 -564 30 -13 58 -26 63 -30 4 -4 -23 -29 -59 -55 -277 -204
-556 -585 -760 -1035 -58 -128 -144 -351 -144 -372 0 -26 345 24 598 86 395
97 699 231 943 416 l76 57 18 -64 c90 -331 393 -584 700 -584 210 0 381 109
474 302 73 150 75 303 6 444 -84 171 -251 244 -369 161 -57 -40 -86 -164 -50
-215 20 -29 42 -28 85 4 l34 25 12 -38 c34 -111 -14 -236 -111 -285 -130 -66
-352 51 -448 237 -99 192 -97 389 7 702 66 198 87 237 179 329 163 164 337
210 567 150 52 -14 96 -22 99 -20 16 17 -156 109 -241 129 -80 18 -208 19
-277 1 -29 -7 -52 -12 -52 -10 0 1 13 31 30 65 67 142 77 305 26 443 -39 110
-46 105 -46 -30 0 -134 -14 -203 -59 -292 -71 -141 -214 -246 -418 -309 -82
-25 -101 -27 -278 -27 -221 -1 -274 9 -422 80 -195 94 -313 257 -313 435 0
107 25 151 112 195 62 32 143 32 216 1 l52 -23 -35 -31 c-51 -45 -48 -78 8
-103 53 -25 101 -25 153 -1 132 60 136 234 9 370 -118 126 -293 181 -460 145z
m519 -1625 c28 -13 28 -15 22 -74 -12 -116 -95 -241 -220 -329 -127 -91 -265
-145 -508 -200 l-28 -6 20 50 c30 75 88 188 135 260 98 152 201 249 312 296
50 21 70 24 148 21 50 -2 103 -10 119 -18z"/>
<path d="M64807 6805 c-254 -70 -408 -324 -281 -465 42 -46 89 -64 155 -58 99
10 128 62 64 116 l-36 29 59 26 c81 37 132 35 213 -5 51 -27 68 -42 87 -78 21
-39 23 -56 20 -130 -5 -97 -32 -169 -98 -257 -136 -179 -454 -281 -756 -243
-205 25 -356 92 -474 210 -126 125 -160 214 -160 420 -1 113 -2 123 -16 105
-26 -34 -56 -147 -61 -231 -7 -97 13 -200 57 -293 25 -52 27 -61 12 -57 -41
13 -129 26 -177 26 -58 0 -184 -30 -248 -58 -48 -22 -131 -81 -124 -88 2 -3
42 5 88 18 125 33 270 31 363 -5 138 -54 259 -165 321 -292 87 -181 161 -485
150 -615 -18 -220 -121 -395 -282 -483 -146 -79 -271 -47 -337 85 -28 57 -32
104 -15 174 l12 45 21 -19 c71 -65 116 -42 116 59 0 110 -97 193 -205 176
-127 -21 -235 -149 -272 -320 -27 -129 4 -266 86 -387 142 -209 370 -284 621
-204 111 35 194 88 296 189 108 107 161 191 206 331 l33 101 40 -34 c193 -168
582 -345 958 -437 218 -54 600 -116 616 -100 10 9 -74 228 -157 411 -203 443
-486 820 -763 1015 l-58 41 76 33 c160 70 281 166 372 298 190 275 187 606 -7
803 -129 132 -347 194 -515 148z m-1 -1635 c154 -76 317 -286 427 -552 20 -47
23 -47 -125 -9 -367 96 -595 284 -615 510 l-5 58 53 16 c85 26 183 18 265 -23z"/>
<path d="M39230 3300 c-292 -20 -567 -82 -820 -185 -304 -124 -415 -167 -450
-175 l-35 -8 31 -1 c50 -2 235 35 449 89 303 77 454 94 825 94 261 0 330 -3
475 -23 702 -94 1321 -315 2035 -729 39 -22 -75 80 -185 167 -686 539 -1546
824 -2325 771z"/>
<path d="M26005 3284 c-556 -69 -1091 -274 -1580 -605 -132 -89 -267 -194
-366 -283 -60 -53 -53 -51 106 39 538 305 1135 526 1673 619 279 49 416 60
722 59 354 -1 490 -17 838 -101 285 -69 398 -91 427 -83 16 4 13 7 -15 12 -42
9 -182 61 -431 164 -203 83 -377 131 -592 166 -176 28 -602 35 -782 13z"/>
<path d="M26213 2839 c-710 -30 -1176 -194 -1666 -589 -246 -198 -427 -479
-510 -790 -28 -107 -30 -128 -31 -295 -1 -155 2 -192 22 -268 68 -269 210
-481 439 -653 337 -254 845 -311 1336 -150 214 70 399 179 547 322 276 266
370 593 261 912 -41 118 -84 185 -186 287 -143 144 -286 205 -475 205 -118 -1
-154 -9 -305 -68 -97 -38 -129 -56 -166 -92 -125 -125 -97 -326 59 -418 41
-23 58 -27 127 -27 62 0 89 5 120 22 166 89 195 311 57 436 -23 20 -47 37 -52
37 -6 0 -10 5 -10 10 0 16 176 12 249 -5 219 -52 410 -256 456 -487 19 -98 19
-160 -1 -255 -50 -244 -233 -458 -512 -601 -213 -110 -438 -162 -697 -162
-342 0 -567 81 -776 277 -345 326 -393 817 -123 1273 147 249 432 489 789 666
376 187 758 253 1462 254 322 0 463 -9 720 -46 400 -57 822 -160 1533 -377
1358 -415 1613 -484 1980 -537 613 -89 1172 9 1374 241 115 131 129 328 34
467 -51 74 -141 116 -198 93 -22 -9 -19 -10 23 -10 58 -1 94 -18 134 -65 78
-88 96 -254 39 -369 -137 -280 -714 -396 -1400 -281 -325 55 -563 123 -1551
444 -910 296 -1035 334 -1370 420 -440 113 -772 164 -1170 180 -246 10 -301
10 -562 -1z"/>
<path d="M38885 2839 c-431 -25 -921 -124 -1535 -310 -145 -44 -690 -220
-1415 -456 -883 -287 -1376 -366 -1853 -297 -291 42 -492 146 -572 296 -65
121 -49 284 37 379 40 44 109 74 150 65 21 -5 24 -4 13 4 -35 23 -121 1 -169
-43 -60 -56 -101 -158 -101 -252 0 -285 269 -466 780 -526 151 -17 506 -6 685
21 384 58 542 101 1925 520 503 153 682 204 928 264 607 150 1044 198 1622
176 571 -21 897 -87 1225 -250 218 -107 474 -288 606 -426 384 -404 467 -970
199 -1360 -85 -123 -238 -255 -375 -322 -174 -87 -340 -117 -589 -109 -246 8
-443 56 -639 156 -462 235 -653 665 -460 1033 115 219 365 357 598 329 l60 -7
-30 -16 c-108 -59 -160 -197 -120 -319 34 -101 143 -179 250 -179 153 0 276
136 262 290 -13 142 -91 208 -357 297 -103 35 -261 36 -365 3 -233 -74 -406
-242 -486 -472 -91 -266 -33 -558 160 -800 364 -458 1148 -652 1727 -427 269
105 534 363 640 624 68 165 79 228 78 440 -1 172 -3 199 -27 287 -92 347 -287
632 -584 856 -385 291 -773 448 -1253 507 -264 32 -689 42 -1015 24z"/>
<path d="M23075 2717 c-53 -25 -70 -53 -70 -116 0 -142 144 -281 370 -357 169
-56 335 -21 357 75 2 11 -9 15 -47 16 -89 3 -149 45 -271 192 -47 56 -99 114
-116 128 -73 61 -167 87 -223 62z"/>
<path d="M42575 2718 c-56 -20 -102 -56 -161 -125 -95 -111 -206 -218 -246
-236 -20 -9 -57 -17 -82 -17 -38 0 -46 -3 -46 -19 0 -26 61 -78 107 -90 124
-35 328 23 478 134 117 87 169 208 130 301 -23 56 -104 79 -180 52z"/>
<path d="M32845 2271 c-62 -27 -78 -102 -47 -232 23 -95 72 -225 87 -231 26
-9 105 237 105 329 0 48 -18 101 -43 121 -20 17 -76 24 -102 13z"/>
<path d="M33135 2018 c-58 -61 -146 -218 -121 -218 31 0 127 42 186 82 90 59
112 117 65 163 -39 40 -71 33 -130 -27z"/>
<path d="M32477 2033 c-67 -75 12 -152 207 -202 84 -21 89 -18 55 38 -85 139
-212 219 -262 164z"/>
<path d="M42156 2022 c-14 -22 140 -128 282 -194 191 -89 488 -167 692 -183
164 -13 346 29 413 95 63 64 43 115 -66 165 -109 50 -177 58 -517 60 -173 1
-353 5 -400 9 -80 7 -313 39 -372 52 -14 3 -29 1 -32 -4z"/>
<path d="M23440 2000 c-168 -29 -368 -41 -656 -39 -286 2 -356 -6 -476 -51
-57 -21 -118 -76 -118 -106 0 -63 98 -124 241 -150 230 -42 643 41 944 191
106 53 245 147 245 166 0 13 -59 9 -180 -11z"/>
<path d="M24010 1870 c-194 -53 -628 -408 -757 -618 -110 -180 -103 -306 16
-272 96 27 218 145 361 350 124 178 252 346 340 447 39 46 70 87 68 91 -1 5
-14 6 -28 2z"/>
<path d="M41730 1871 c0 -5 35 -49 78 -98 96 -109 166 -201 317 -418 130 -186
238 -303 323 -348 139 -75 190 4 112 172 -44 92 -114 182 -232 296 -180 175
-330 287 -482 361 -90 44 -116 52 -116 35z"/>
<path d="M32829 1663 c-101 -108 -96 -100 -109 -208 -18 -157 -66 -384 -109
-513 l-40 -117 140 -248 c167 -297 161 -287 175 -287 10 0 122 190 278 473
l38 67 -25 63 c-51 127 -100 349 -127 572 -10 84 -13 92 -54 140 -72 84 -94
105 -108 105 -8 0 -34 -21 -59 -47z"/>
<path d="M32550 1625 c-90 -237 -182 -354 -321 -406 -49 -19 -121 -22 -316
-16 -73 3 -105 -50 -83 -135 17 -61 106 -148 179 -171 291 -93 600 195 601
560 0 132 -36 232 -60 168z"/>
<path d="M33170 1624 c-22 -58 -31 -166 -19 -248 36 -268 231 -479 454 -494
161 -10 305 82 322 207 13 97 -26 128 -141 113 -115 -15 -233 0 -306 39 -104
55 -190 167 -255 332 -15 37 -31 70 -36 73 -5 3 -14 -7 -19 -22z"/>
</g>
</svg>
